<svg xmlns="http://www.w3.org/2000/svg" width="24" height="24" viewBox="0 0 24 24">
  <g id="Check_Mark" data-name="Check Mark" transform="translate(-391 -3548)">
    <circle id="Circle" cx="12" cy="12" r="12" transform="translate(391 3548)" fill="#72ae87"/>
    <path id="_" data-name="\," d="M15.7.306a1,1,0,0,0-1.438,0L6.47,7.079,3.473,4A2,2,0,0,0,.6,4a2.127,2.127,0,0,0,0,2.955l4.315,4.432A2.122,2.122,0,0,0,6.351,12a2,2,0,0,0,1.44-.614l7.91-9.6a1.064,1.064,0,0,0,0-1.477" transform="translate(395.001 3554)" fill="#fff"/>
  </g>
</svg>
